<?xml version="1.0" encoding="UTF-8"?><svg id="Laag_1" xmlns="http://www.w3.org/2000/svg" viewBox="0 0 841.89 291.82"><rect x="-2.4" y="-1.4" width="844.56" height="293.96"/><path d="M339.52,7.03h-49.68l-94.03,284.49h43.83l23.63-75.04h103.84l24.39,75.04h43.83L339.52,7.03ZM274.7,180.2l14.79-46.96c3.67-12.22,7.89-27.14,12.69-44.77,3.7-13.66,7.79-29.42,12.24-47.3,4.58,17.63,8.71,33.18,12.42,46.63,4.79,17.44,9.19,32.58,13.21,45.45l15.26,46.96h-80.62Z" fill="#fff"/><path d="M146.03,7.03h-24.94l-47.2,284.49h22l11.86-75.04h52.12l12.24,75.04h22L146.03,7.03ZM113.49,180.2l7.42-46.96c1.84-12.22,3.96-27.14,6.37-44.77,1.86-13.66,3.91-29.42,6.14-47.3,2.3,17.63,4.37,33.18,6.23,46.63,2.4,17.44,4.61,32.58,6.63,45.45l7.66,46.96h-40.47Z" fill="#fff"/><path d="M52.79,7.03h-10.46l-19.8,284.49h9.23l4.98-75.04h21.86l5.13,75.04h9.23L52.79,7.03ZM39.14,180.2l3.11-46.96c.77-12.22,1.66-27.14,2.67-44.77.78-13.66,1.64-29.42,2.58-47.3.96,17.63,1.83,33.18,2.61,46.63,1.01,17.44,1.93,32.58,2.78,45.45l3.21,46.96h-16.97Z" fill="#fff"/><path d="M13.5,7.03h-4.56L.32,291.52h4.02l2.17-75.04h9.52l2.24,75.04h4.02L13.5,7.03ZM7.56,180.2l1.36-46.96c.34-12.22.72-27.14,1.16-44.77.34-13.66.71-29.42,1.12-47.3.42,17.63.8,33.18,1.14,46.63.44,17.44.84,32.58,1.21,45.45l1.4,46.96h-7.39Z" fill="#fff"/><path d="M627.1,7.03h-66.54l-125.95,284.49h58.7l31.66-75.04h139.09l32.67,75.04h58.7L627.1,7.03ZM540.27,180.2l19.81-46.96c4.91-12.22,10.57-27.14,17-44.77,4.96-13.66,10.44-29.42,16.4-47.3,6.14,17.63,11.67,33.18,16.63,46.63,6.41,17.44,12.31,32.58,17.7,45.45l20.45,46.96h-107.98Z" fill="#fff"/><path d="M1041.53,7.03h-98.92l-187.25,284.49h87.27l47.06-75.04h206.77l48.57,75.04h87.27L1041.53,7.03ZM912.45,180.2l29.45-46.96c7.3-12.22,15.72-27.14,25.27-44.77,7.38-13.66,15.51-29.42,24.38-47.3,9.12,17.63,17.35,33.18,24.73,46.63,9.53,17.44,18.3,32.58,26.31,45.45l30.4,46.96h-160.53Z" fill="#fff"/></svg>