<svg xmlns="http://www.w3.org/2000/svg" viewBox="0 0 227.73 142.27"><path d="M227.73,131.47a10.8,10.8,0,1,1-10.8-10.8,10.8,10.8,0,0,1,10.8,10.8h0"></path><polygon points="66.19 93.2 34.4 93.2 34.22 93.2 34.22 93.01 34.4 93.2 62.4 0 42.59 0 0 139.07 21.3 139.07 28.94 112.86 60.17 112.86 66.19 93.2"></polygon><polygon points="126.6 93.2 94.81 93.2 94.63 93.2 94.63 93.01 94.81 93.2 122.81 0 103 0 60.41 139.07 81.7 139.07 89.35 112.86 120.58 112.86 126.6 93.2"></polygon><polygon points="187.87 4.4 177.45 39.08 193.63 93.2 155.4 93.2 155.22 93.2 155.22 93.01 155.4 93.2 184.03 0 163.59 0 121 139.07 142.29 139.07 149.94 112.86 221.09 112.83 187.87 4.4"></polygon></svg>